<svg height="464pt" viewBox="0 0 464 464.04983" width="464pt" xmlns="http://www.w3.org/2000/svg"><path d="m159.964844 0c-73.449219.0273438-137.445313 50.058594-155.195313 121.332031-17.753906 71.269531 15.300781 145.472657 80.15625 179.949219l35.039063-61.28125v74.800781c60.097656 15.707031 123.855468-4.789062 163.542968-52.578125 39.6875-47.785156 48.128907-114.222656 21.65625-170.414062-26.476562-56.195313-83.082031-91.984375-145.199218-91.808594zm0 0" fill="#70dda8"/><path d="m211.964844 264c-99.410156 0-180-80.589844-180-180 .019531-7.164062.449218-14.324219 1.28125-21.4375-28.671875 37.308594-39.464844 85.351562-29.507813 131.339844 9.957031 45.988281 39.652344 85.265625 81.1875 107.378906l35.039063-61.28125v74.800781c68.359375 17.902344 140.335937-11.421875 176.71875-72-26.070313 13.917969-55.164063 21.199219-84.71875 21.199219zm0 0" fill="#40bf7c"/><path d="m159.964844 32c-58.964844.007812-110.292969 40.292969-124.3125 97.566406-14.019532 57.273438 12.898437 116.710938 65.191406 143.953125l19.121094-33.519531v41.519531c48.097656 15.917969 101.058594 1.964844 135.070312-35.582031 34.015625-37.542969 42.683594-91.621094 22.109375-137.917969s-66.515625-76.101562-117.179687-76.019531zm0 0" fill="#faeed8"/><path d="m288.683594 254.800781c-9.5625 12.925781-20.992188 24.355469-33.917969 33.917969l51.757813 51.84375 33.921874-33.921875zm0 0" fill="#faa108"/><path d="m306.585938 340.554688 33.941406-33.941407c6.25-6.246093 16.378906-6.246093 22.628906 0l96.164062 96.167969c6.25 6.246094 6.25 16.378906 0 22.625l-33.941406 33.941406c-6.246094 6.25-16.378906 6.25-22.625 0l-96.167968-96.164062c-6.246094-6.25-6.246094-16.378906 0-22.628906zm0 0" fill="#70dda8"/><path d="m458.523438 402.082031c-25.101563 24.296875-65.050782 23.976563-89.757813-.722656l-61.519531-61.519531-.722656.722656c-3.003907 3-4.691407 7.070312-4.691407 11.316406 0 4.25 1.6875 8.320313 4.691407 11.320313l96 96c3.003906 3.007812 7.074218 4.695312 11.320312 4.695312 4.25 0 8.320312-1.6875 11.320312-4.695312l33.921876-34c6.203124-6.238281 6.203124-16.316407 0-22.558594zm0 0" fill="#40bf7c"/><path d="m288.683594 254.800781c-9.5625 12.925781-20.992188 24.355469-33.917969 33.917969l22.878906 22.960938c12.820313-9.699219 24.351563-20.988282 34.320313-33.597657zm0 0" fill="#d6850d"/><path d="m143.964844 56c44.613281.019531 86 23.269531 109.226562 61.359375 23.226563 38.09375 24.945313 85.53125 4.535156 125.203125 31.921876-37.558594 39.445313-90.105469 19.339844-135.109375-20.101562-45.003906-64.261718-74.46875-113.535156-75.75-49.273438-1.285156-94.90625 25.839844-117.324219 69.738281 24.304688-28.800781 60.070313-45.425781 97.757813-45.441406zm0 0" fill="#e8d4b8"/><path d="m351.964844 200h64v32h-64zm0 0" fill="#fd412d"/><path d="m135.964844 120h48v48h-48zm0 0" fill="#d6850d"/><path d="m199.964844 104c0 22.09375-17.90625 40-40 40-22.089844 0-40-17.90625-40-40 0-22.089844 17.910156-40 40-40 22.09375 0 40 17.910156 40 40zm0 0" fill="#faa108"/><path d="m135.964844 144h48c17.671875 0 32 14.328125 32 32v64h-112v-64c0-17.671875 14.328125-32 32-32zm0 0" fill="#faa108"/><path d="m175.964844 128c-22.089844 0-40-17.90625-40-40 .046875-6.644531 1.78125-13.167969 5.039062-18.960938-15.289062 7.957032-23.765625 24.816407-21.027344 41.835938 2.738282 17.019531 16.070313 30.371094 33.082032 33.132812 17.015625 2.761719 33.886718-5.6875 41.867187-20.96875-5.8125 3.203126-12.328125 4.90625-18.960937 4.960938zm0 0" fill="#d6850d"/><path d="m159.964844 216c-17.671875 0-32-14.328125-32-32v-8c0-17.671875 14.328125-32 32-32h-24c-17.671875 0-32 14.328125-32 32v64h112v-24zm0 0" fill="#d6850d"/><path d="m215.964844 352h-96v-112l-64 112h-16c-8.835938 0-16 7.164062-16 16v80c0 8.835938 7.164062 16 16 16h176c8.835937 0 16-7.164062 16-16v-80c0-8.835938-7.164063-16-16-16zm0 0" fill="#fd412d"/><path d="m119.964844 432c-35.347656 0-64-28.652344-64-64v-16h-16c-8.835938 0-16 7.164062-16 16v80c0 8.835938 7.164062 16 16 16h176c8.835937 0 16-7.164062 16-16v-16zm0 0" fill="#d6332b"/><g fill="#2b8955"><path d="m111.964844 432h-48c-4.417969 0-8-3.582031-8-8s3.582031-8 8-8h48c4.417968 0 8 3.582031 8 8s-3.582032 8-8 8zm0 0"/><path d="m135.964844 400h-56c-4.417969 0-8-3.582031-8-8s3.582031-8 8-8h56c4.417968 0 8 3.582031 8 8s-3.582032 8-8 8zm0 0"/><path d="m199.964844 400h-32c-4.417969 0-8-3.582031-8-8s3.582031-8 8-8h32c4.417968 0 8 3.582031 8 8s-3.582032 8-8 8zm0 0"/><path d="m175.964844 432h-32c-4.417969 0-8-3.582031-8-8s3.582031-8 8-8h32c4.417968 0 8 3.582031 8 8s-3.582032 8-8 8zm0 0"/><path d="m407.964844 56h-72c-4.417969 0-8-3.582031-8-8s3.582031-8 8-8h72c4.417968 0 8 3.582031 8 8s-3.582032 8-8 8zm0 0"/><path d="m407.964844 96h-72c-4.417969 0-8-3.582031-8-8s3.582031-8 8-8h72c4.417968 0 8 3.582031 8 8s-3.582032 8-8 8zm0 0"/><path d="m407.964844 136h-40c-4.417969 0-8-3.582031-8-8s3.582031-8 8-8h40c4.417968 0 8 3.582031 8 8s-3.582032 8-8 8zm0 0"/><path d="m407.964844 176h-40c-4.417969 0-8-3.582031-8-8s3.582031-8 8-8h40c4.417968 0 8 3.582031 8 8s-3.582032 8-8 8zm0 0"/></g></svg>