<svg height="464pt" viewBox="0 -16 464 464" width="464pt" xmlns="http://www.w3.org/2000/svg"><path d="m464 216s-104 128-232 128-232-128-232-128 104-128 232-128 232 128 232 128zm0 0" fill="#70dda8"/><path d="m264 328c-128 0-232-128-232-128 31.511719-36.65625 68.871094-67.851562 110.558594-92.320312-83.757813 35.839843-142.558594 108.320312-142.558594 108.320312s104 128 232 128c42.882812-1.140625 84.730469-13.40625 121.441406-35.601562-28.183594 12.511718-58.609375 19.179687-89.441406 19.601562zm0 0" fill="#40bf7c"/><path d="m232 88c-42.890625 1.164062-84.738281 13.460938-121.441406 35.679688 28.164062-12.574219 58.601562-19.273438 89.441406-19.679688 128 0 232 128 232 128-31.527344 36.664062-68.878906 67.882812-110.558594 92.398438 83.757813-35.917969 142.558594-108.398438 142.558594-108.398438s-104-128-232-128zm0 0" fill="#40bf7c"/><path d="m328 216c0 53.019531-42.980469 96-96 96s-96-42.980469-96-96 42.980469-96 96-96 96 42.980469 96 96zm0 0" fill="#faeed8"/><path d="m272 280c-35.9375-.140625-68.789062-20.339844-85.128906-52.347656-16.339844-32.007813-13.433594-70.460938 7.527344-99.652344-37.566407 15.71875-61.128907 53.429688-58.785157 94.085938s30.085938 75.410156 69.210938 86.707031 81.121093-3.320313 104.777343-36.472657c-11.882812 5.09375-24.675781 7.707032-37.601562 7.679688zm0 0" fill="#e8d4b8"/><path d="m232 344c-82.878906 0-155.519531-53.519531-196.558594-91.359375 17.765625 94.558594 100.34375 163.066406 196.558594 163.066406s178.792969-68.507812 196.558594-163.066406c-41.039063 37.839844-113.679688 91.359375-196.558594 91.359375zm0 0" fill="#faeed8"/><path d="m195.039062 340.398438c-67.277343-12.398438-124.800781-56-159.597656-88 12.71875 68.238281 59.910156 125 124.679688 149.964843 64.769531 24.964844 137.847656 14.5625 193.078125-27.484375-8 .722656-16.71875 1.121094-25.199219 1.121094-46.699219.195312-92.605469-12.09375-132.960938-35.601562zm0 0" fill="#e8d4b8"/><path d="m232 88c82.878906 0 155.519531 53.519531 196.558594 91.359375-17.765625-94.558594-100.34375-163.066406-196.558594-163.066406s-178.792969 68.507812-196.558594 163.066406c41.039063-37.839844 113.679688-91.359375 196.558594-91.359375zm0 0" fill="#faeed8"/><path d="m232 88c57.601562 0 110.238281 25.921875 150.800781 54.398438-28.242187-57.507813-86.730469-93.949219-150.800781-93.949219s-122.558594 36.441406-150.800781 93.949219c40.5625-28.476563 93.199219-54.398438 150.800781-54.398438zm0 0" fill="#faa108"/><path d="m232 344c-57.601562 0-110.238281-25.839844-150.800781-54.320312 28.242187 57.511718 86.730469 93.949218 150.800781 93.949218s122.558594-36.4375 150.800781-93.949218c-40.5625 28.398437-93.199219 54.320312-150.800781 54.320312zm0 0" fill="#faa108"/><path d="m232 384c20.046875.011719 39.933594-3.566406 58.71875-10.558594-33.667969-4.675781-66.105469-15.839844-95.519531-32.882812-36.429688-7.511719-71.046875-22.050782-101.917969-42.796875h-.480469c-2.960937-1.921875-5.839843-3.839844-8.640625-5.839844l-1.039062-.722656-1.921875-1.277344c28.203125 57.558594 86.703125 94.054687 150.800781 94.078125zm0 0" fill="#d6850d"/><path d="m256 184c0 13.253906-10.746094 24-24 24s-24-10.746094-24-24 10.746094-24 24-24 24 10.746094 24 24zm0 0" fill="#fd412d"/><path d="m216 208h32c8.835938 0 16 7.164062 16 16v48h-64v-48c0-8.835938 7.164062-16 16-16zm0 0" fill="#fd412d"/><path d="m248 200c-13.253906 0-24-10.746094-24-24-.007812-5.898438 2.15625-11.59375 6.078125-16-10.851563.75-19.84375 8.703125-21.910156 19.386719-2.066407 10.683593 3.3125 21.417969 13.105469 26.15625 9.792968 4.742187 21.546874 2.304687 28.648437-5.941407zm0 0" fill="#d6332b"/><path d="m232 208h-16c-8.835938 0-16 7.164062-16 16v48h16v-48c0-8.835938 7.164062-16 16-16zm0 0" fill="#d6332b"/><g fill="#40bf7c"><path d="m440 88c-4.417969 0-8-3.582031-8-8v-56c0-4.417969-3.582031-8-8-8h-56c-4.417969 0-8-3.582031-8-8s3.582031-8 8-8h56c13.253906 0 24 10.746094 24 24v56c0 4.417969-3.582031 8-8 8zm0 0"/><path d="m24 88c-4.417969 0-8-3.582031-8-8v-56c0-13.253906 10.746094-24 24-24h56c4.417969 0 8 3.582031 8 8s-3.582031 8-8 8h-56c-4.417969 0-8 3.582031-8 8v56c0 4.417969-3.582031 8-8 8zm0 0"/><path d="m96 432h-56c-13.253906 0-24-10.746094-24-24v-56c0-4.417969 3.582031-8 8-8s8 3.582031 8 8v56c0 4.417969 3.582031 8 8 8h56c4.417969 0 8 3.582031 8 8s-3.582031 8-8 8zm0 0"/><path d="m424 432h-56c-4.417969 0-8-3.582031-8-8s3.582031-8 8-8h56c4.417969 0 8-3.582031 8-8v-56c0-4.417969 3.582031-8 8-8s8 3.582031 8 8v56c0 13.253906-10.746094 24-24 24zm0 0"/></g><path d="m35.441406 179.359375c14.054688-13.027344 28.941406-25.132813 44.558594-36.238281.566406-24.65625 5.4375-49.023438 14.398438-72-30.558594 28.972656-51.191407 66.851562-58.957032 108.238281zm0 0" fill="#e8d4b8"/></svg>